# xmcd
#
# Track frame offsets:
#	150
#	12259
#	30622
#	49468
#	69010
#	83569
#	100750
#	117134
#	130376
#	150023
#	164861
#	178641
#
# Disc length: 2557 seconds
#
# Revision: 1
# Processed by: cddbd v1.5.2PL0 Copyright (c) Steve Scherf et al.
# Submitted via: audiograbber 1.83.01
#
DISCID=8d09fb0c
DTITLE=Steve Earle - Washington Square Serenade
DYEAR=2007
DGENRE=Blues
TTITLE0=Tennessee Blues
TTITLE1=Down Here Below
TTITLE2=Satellite Radio
TTITLE3=City Of Immigrants (with Forro In The Dark)
TTITLE4=Sparkle And Shine
TTITLE5=Come Home To Me
TTITLE6=Jericho Road
TTITLE7=Oxycontin Blues
TTITLE8=Red Is The Color
TTITLE9=Steve's Hammer (For Pete)
TTITLE10=Day's Aren't Long Enough (with Allison Moorer)
TTITLE11=Way Down In The Hole
EXTD=
EXTT0=
EXTT1=
EXTT2=
EXTT3=
EXTT4=
EXTT5=
EXTT6=
EXTT7=
EXTT8=
EXTT9=
EXTT10=
EXTT11=
PLAYORDER=
